<?xml version="1.0" standalone="no"?>
<!DOCTYPE svg PUBLIC "-//W3C//DTD SVG 20010904//EN"
 "http://www.w3.org/TR/2001/REC-SVG-20010904/DTD/svg10.dtd">
<svg version="1.0" xmlns="http://www.w3.org/2000/svg"
 width="700.000000pt" height="700.000000pt" viewBox="0 0 700.000000 700.000000"
 preserveAspectRatio="xMidYMid meet">
<metadata>
Created by potrace 1.11, written by Peter Selinger 2001-2013
</metadata>
<g transform="translate(0.000000,700.000000) scale(0.100000,-0.100000)"
fill="#000000" stroke="none">
<path d="M2517 5384 c-1 -1 -38 -5 -82 -8 -109 -9 -135 -14 -245 -41 -587
-147 -1009 -596 -1086 -1155 -17 -124 -8 -335 21 -490 7 -37 -3 -46 -77 -68
-238 -74 -459 -267 -580 -507 -30 -60 -73 -188 -88 -266 -85 -438 194 -921
627 -1085 130 -49 179 -55 508 -59 395 -6 3619 -6 4030 -1 338 5 363 8 499 68
292 127 486 377 551 708 21 109 14 329 -15 438 -76 290 -233 495 -483 630 -31
17 -58 31 -60 31 -1 0 -15 5 -32 11 -69 27 -194 52 -328 66 -60 6 -63 8 -71
59 -23 141 -51 229 -112 351 -84 168 -216 321 -377 435 -128 91 -354 188 -482
205 -22 4 -60 10 -85 14 -25 5 -101 7 -170 6 -174 -4 -317 -37 -477 -111 l-72
-33 -35 56 c-19 31 -50 81 -68 111 -18 30 -37 59 -43 65 -5 6 -23 29 -40 51
-32 43 -146 160 -207 213 -178 154 -471 273 -731 297 -62 6 -186 12 -190 9z
m88 -999 c27 -13 238 -217 630 -608 325 -324 617 -620 651 -658 86 -98 200
-308 175 -323 -11 -7 -162 68 -231 116 -78 54 -137 111 -803 775 -551 550
-561 562 -570 665 -3 26 -2 50 2 53 11 12 105 -1 146 -20z m1333 -128 l52 -52
-61 -16 -60 -16 -30 29 c-39 39 -47 73 -23 99 26 29 60 17 122 -44z m656 -51
c20 -8 36 -19 36 -23 0 -4 -37 -28 -82 -53 -287 -157 -450 -245 -557 -302
-160 -85 -187 -103 -277 -194 -52 -52 -97 -94 -101 -94 -3 0 -53 48 -110 108
-58 59 -141 144 -185 189 -52 54 -76 84 -67 87 20 7 459 116 489 122 14 3 50
11 80 19 95 25 410 102 515 125 55 12 105 23 110 24 36 9 119 5 149 -8z
m-1455 -770 l189 -188 -98 -99 c-77 -76 -109 -118 -146 -186 -59 -110 -176
-329 -219 -408 -18 -33 -49 -91 -70 -130 -79 -147 -107 -195 -115 -195 -12 0
-30 60 -34 111 -2 24 3 71 10 104 24 110 33 150 38 170 3 11 21 85 40 165 19
80 60 246 91 370 31 124 58 233 60 243 14 62 59 236 61 234 2 -1 88 -87 193
-191z m-493 -397 c43 -29 44 -31 38 -72 -4 -23 -12 -52 -18 -65 -12 -23 -12
-23 -60 25 -27 26 -52 57 -56 68 -9 24 7 63 29 68 9 3 17 5 19 6 2 0 23 -13
48 -30z m1909 -52 c17 -6 39 -19 49 -29 20 -18 20 -18 0 -35 -11 -10 -33 -25
-49 -34 -61 -34 -192 -104 -263 -140 l-72 -38 -15 23 c-22 34 -76 184 -67 189
9 6 251 64 312 75 46 9 54 8 105 -11z m-511 -288 c47 -17 90 -37 96 -44 9 -11
-10 -54 -85 -196 -108 -204 -117 -219 -126 -219 -3 0 -18 18 -33 39 -39 56
-39 103 1 271 19 80 36 152 38 160 2 8 4 16 4 18 2 6 27 0 105 -29z"/>
</g>
</svg>
